<svg xmlns="http://www.w3.org/2000/svg" version="1.1" xmlns:xlink="http://www.w3.org/1999/xlink" xmlns:svgjs="http://svgjs.dev/svgjs" width="2000" height="671" viewBox="0 0 2000 671"><g transform="matrix(1,0,0,1,-1.2120572390535926,-0.29557678078327854)"><svg viewBox="0 0 396 133" data-background-color="#ffffff" preserveAspectRatio="xMidYMid meet" height="671" width="2000" xmlns="http://www.w3.org/2000/svg" xmlns:xlink="http://www.w3.org/1999/xlink"><g id="tight-bounds" transform="matrix(1,0,0,1,0.23998733333260702,0.05858675386613754)"><svg viewBox="0 0 395.5199999999999 132.88282649226772" height="132.88282649226772" width="395.5199999999999"><g><svg viewBox="0 0 598.2678281201819 200.99999999999997" height="132.88282649226772" width="395.5199999999999"><g><rect width="8.333590128483891" height="200.99999999999997" x="230.47771891678198" y="0" fill="#ff5858" opacity="1" stroke-width="0" stroke="transparent" fill-opacity="1" class="rect-o-0" data-fill-palette-color="primary" rx="1%" id="o-0" data-palette-color="#ff5858"></rect></g><g transform="matrix(1,0,0,1,260.6269900098834,0.4999999999999858)"><svg viewBox="0 0 337.6408381102985 200" height="200" width="337.6408381102985"><g id="textblocktransform"><svg viewBox="0 0 337.6408381102985 200" height="200" width="337.6408381102985" id="textblock"><g><svg viewBox="0 0 337.6408381102985 200" height="200" width="337.6408381102985"><g transform="matrix(1,0,0,1,0,0)"><svg width="337.6408381102985" viewBox="2.689997673034668 -36.040000915527344 133.4399871826172 76.05000305175781" height="200" data-palette-color="#ff5858"><svg></svg><svg></svg><g class="undefined-text-0" data-fill-palette-color="primary" id="text-0"><path xmlns="http://www.w3.org/2000/svg" d="M32.37-35.55v35.55h-8.52l-12.6-22.12v22.12h-8.56v-35.55h8.56l12.58 22.12v-22.12zM59.84-21.44v6.38h-13.48v8.47h15.92v6.59h-24.49v-35.55h24.54v6.62h-15.97v7.49zM88.35-35.55l4.96 22.29 4.08-22.29h8.49l-7.54 35.55h-8.89l-4.76-20.26-4.66 20.26h-8.86l-7.57-35.55h8.52l4.08 22.29 4.88-22.29zM127.56-9.45v0c0-1.253-0.443-2.23-1.33-2.93-0.887-0.7-2.443-1.423-4.67-2.17-2.233-0.747-4.057-1.47-5.47-2.17v0c-4.607-2.267-6.91-5.377-6.91-9.33v0c0-1.967 0.573-3.703 1.72-5.21 1.147-1.507 2.77-2.68 4.87-3.52 2.1-0.84 4.46-1.26 7.08-1.26v0c2.553 0 4.843 0.457 6.87 1.37 2.027 0.913 3.603 2.213 4.73 3.9 1.12 1.68 1.68 3.603 1.68 5.77v0h-8.54c0-1.447-0.443-2.57-1.33-3.37-0.887-0.8-2.087-1.2-3.6-1.2v0c-1.533 0-2.743 0.34-3.63 1.02-0.887 0.673-1.33 1.53-1.33 2.57v0c0 0.913 0.49 1.74 1.47 2.48 0.973 0.74 2.69 1.507 5.15 2.3 2.453 0.787 4.47 1.637 6.05 2.55v0c3.84 2.213 5.76 5.263 5.76 9.15v0c0 3.113-1.17 5.557-3.51 7.33-2.347 1.773-5.563 2.66-9.65 2.66v0c-2.88 0-5.487-0.517-7.82-1.55-2.333-1.033-4.09-2.45-5.27-4.25-1.18-1.8-1.77-3.87-1.77-6.21v0h8.59c0 1.9 0.493 3.303 1.48 4.21 0.98 0.9 2.577 1.35 4.79 1.35v0c1.42 0 2.54-0.303 3.36-0.91 0.82-0.613 1.23-1.473 1.23-2.58z" fill="#ff5858" fill-rule="nonzero" stroke="none" stroke-width="1" stroke-linecap="butt" stroke-linejoin="miter" stroke-miterlimit="10" stroke-dasharray="" stroke-dashoffset="0" font-family="none" font-weight="none" font-size="none" text-anchor="none" style="mix-blend-mode: normal" data-fill-palette-color="primary" opacity="1"></path><path xmlns="http://www.w3.org/2000/svg" d="M32.37 3.97v35.55h-8.52l-12.6-22.12v22.12h-8.56v-35.55h8.56l12.58 22.12v-22.12zM59.84 18.08v6.38h-13.48v8.47h15.92v6.59h-24.49v-35.55h24.54v6.62h-15.97v7.49zM84.11 30.07v0c0-1.253-0.443-2.23-1.33-2.93-0.887-0.7-2.447-1.423-4.68-2.17-2.227-0.747-4.05-1.47-5.47-2.17v0c-4.607-2.267-6.91-5.377-6.91-9.33v0c0-1.967 0.573-3.703 1.72-5.21 1.153-1.507 2.777-2.68 4.87-3.52 2.1-0.84 4.46-1.26 7.08-1.26v0c2.56 0 4.853 0.457 6.88 1.37 2.027 0.913 3.6 2.213 4.72 3.9 1.127 1.68 1.69 3.603 1.69 5.77v0h-8.55c0-1.447-0.443-2.57-1.33-3.37-0.887-0.8-2.087-1.2-3.6-1.2v0c-1.533 0-2.743 0.34-3.63 1.02-0.887 0.673-1.33 1.53-1.33 2.57v0c0 0.913 0.49 1.74 1.47 2.48 0.973 0.74 2.69 1.507 5.15 2.3 2.46 0.787 4.477 1.637 6.05 2.55v0c3.847 2.213 5.77 5.263 5.77 9.15v0c0 3.113-1.173 5.557-3.52 7.33-2.347 1.773-5.56 2.66-9.64 2.66v0c-2.88 0-5.49-0.517-7.83-1.55-2.333-1.033-4.09-2.45-5.27-4.25-1.18-1.8-1.77-3.87-1.77-6.21v0h8.59c0 1.9 0.493 3.303 1.48 4.21 0.987 0.9 2.587 1.35 4.8 1.35v0c1.413 0 2.53-0.303 3.35-0.91 0.827-0.613 1.24-1.473 1.24-2.58zM124.98 3.97v6.62h-10.67v28.93h-8.57v-28.93h-10.48v-6.62z" fill="#ff5858" fill-rule="nonzero" stroke="none" stroke-width="1" stroke-linecap="butt" stroke-linejoin="miter" stroke-miterlimit="10" stroke-dasharray="" stroke-dashoffset="0" font-family="none" font-weight="none" font-size="none" text-anchor="none" style="mix-blend-mode: normal" data-fill-palette-color="primary" opacity="1"></path></g></svg></g></svg></g></svg></g></svg></g><g transform="matrix(1,0,0,1,0,28.772424453943444)"><svg viewBox="0 0 208.66203795216447 143.45515109211308" height="143.45515109211308" width="208.66203795216447"><g><svg xmlns="http://www.w3.org/2000/svg" xmlns:xlink="http://www.w3.org/1999/xlink" version="1.1" x="0" y="0" viewBox="0 0.125 100 68.75" enable-background="new 0 0 100 68.75" xml:space="preserve" width="208.66203795216447" height="143.45515109211308" class="icon-icon-0" data-fill-palette-color="accent" id="icon-0"><g fill="#ed2647" data-fill-palette-color="accent"><path d="M87.5 47.065V6.375c0-3.446-2.804-6.25-6.25-6.25h-62.5c-3.446 0-6.25 2.804-6.25 6.25v40.69L0 57.481v0.977c0 4.753 2.169 10.417 12.5 10.417h75c10.331 0 12.5-5.664 12.5-10.417v-0.977L87.5 47.065zM15.34 50.125h69.32l7.501 6.25-32.603 0.006-0.608 0.599c-0.606 0.596-1.885 1.479-2.7 1.479h-12.5c-0.816 0-2.094-0.883-2.694-1.473l-0.61-0.61H7.839L15.34 50.125zM18.75 4.292h62.5c1.149 0 2.083 0.934 2.083 2.083v39.583H16.667V6.375C16.667 5.226 17.601 4.292 18.75 4.292zM87.5 64.708h-75c-5.707 0-7.579-1.827-8.126-4.166h34.42c0.98 0.804 2.873 2.083 4.956 2.083h12.5c2.083 0 3.976-1.279 4.956-2.083h34.42C95.078 62.881 93.207 64.708 87.5 64.708z" fill="#ed2647" data-fill-palette-color="accent"></path><path d="M35.417 39.708h29.167c3.446 0 6.25-2.804 6.25-6.25V16.792c0-2.297-1.869-4.167-4.166-4.167h-25c-2.297 0-4.167 1.87-4.167 4.167v2.083h-4.167c-2.297 0-4.167 1.87-4.167 4.167v10.417C29.167 36.904 31.97 39.708 35.417 39.708zM66.667 16.792v16.667c0 1.149-0.935 2.083-2.084 2.083H41.282c0.234-0.655 0.384-1.349 0.384-2.083V16.792H66.667zM33.333 23.042H37.5v10.417c0 1.149-0.934 2.083-2.083 2.083-1.149 0-2.083-0.934-2.083-2.083V23.042z" fill="#ed2647" data-fill-palette-color="accent"></path><path d="M45.833 23.042H50c1.151 0 2.083-0.932 2.083-2.083 0-1.152-0.932-2.083-2.083-2.083h-4.167c-1.152 0-2.083 0.932-2.083 2.083C43.75 22.11 44.682 23.042 45.833 23.042z" fill="#ed2647" data-fill-palette-color="accent"></path><path d="M45.833 29.292H50c1.151 0 2.083-0.932 2.083-2.083 0-1.152-0.932-2.083-2.083-2.083h-4.167c-1.152 0-2.083 0.932-2.083 2.083C43.75 28.36 44.682 29.292 45.833 29.292z" fill="#ed2647" data-fill-palette-color="accent"></path><rect x="54.167" y="18.875" width="10.416" height="10.417" fill="#ed2647" data-fill-palette-color="accent"></rect></g></svg></g></svg></g></svg></g><defs></defs></svg><rect width="395.5199999999999" height="132.88282649226772" fill="none" stroke="none" visibility="hidden"></rect></g></svg></g></svg>